name C:\Users\u0150099\Documents\master_thesis\3dpredictsim\Results\debug\Fal_s1_mtj_sc_cspx10_oy_MTPm_k1_d01_MTJm_nl_MG_exp_table_d01_PF_Gefen2002_ls146_ig21.mot
datacolumns 128
datarows 4
range 1.56720202 1.59854606
endheader
time	pelvis_tilt	pelvis_list	pelvis_rotation	pelvis_tx	pelvis_ty	pelvis_tz	hip_flexion_l	hip_adduction_l	hip_rotation_l	hip_flexion_r	hip_adduction_r	hip_rotation_r	knee_angle_l	knee_angle_r	ankle_angle_l	ankle_angle_r	subtalar_angle_l	subtalar_angle_r	mtj_angle_l	mtj_angle_r	mtp_angle_l	mtp_angle_r	lumbar_extension	lumbar_bending	lumbar_rotation	arm_flex_l	arm_add_l	arm_rot_l	arm_flex_r	arm_add_r	arm_rot_r	elbow_flex_l	elbow_flex_r	pro_sup_l	pro_sup_r	glut_med1_l/activation	glut_med2_l/activation	glut_med3_l/activation	glut_min1_l/activation	glut_min2_l/activation	glut_min3_l/activation	semimem_l/activation	semiten_l/activation	bifemlh_l/activation	bifemsh_l/activation	sar_l/activation	add_long_l/activation	add_brev_l/activation	add_mag1_l/activation	add_mag2_l/activation	add_mag3_l/activation	tfl_l/activation	pect_l/activation	grac_l/activation	glut_max1_l/activation	glut_max2_l/activation	glut_max3_l/activation	iliacus_l/activation	psoas_l/activation	quad_fem_l/activation	gem_l/activation	peri_l/activation	rect_fem_l/activation	vas_med_l/activation	vas_int_l/activation	vas_lat_l/activation	med_gas_l/activation	lat_gas_l/activation	soleus_l/activation	tib_post_l/activation	flex_dig_l/activation	flex_hal_l/activation	tib_ant_l/activation	per_brev_l/activation	per_long_l/activation	per_tert_l/activation	ext_dig_l/activation	ext_hal_l/activation	ercspn_l/activation	intobl_l/activation	extobl_l/activation	glut_med1_r/activation	glut_med2_r/activation	glut_med3_r/activation	glut_min1_r/activation	glut_min2_r/activation	glut_min3_r/activation	semimem_r/activation	semiten_r/activation	bifemlh_r/activation	bifemsh_r/activation	sar_r/activation	add_long_r/activation	add_brev_r/activation	add_mag1_r/activation	add_mag2_r/activation	add_mag3_r/activation	tfl_r/activation	pect_r/activation	grac_r/activation	glut_max1_r/activation	glut_max2_r/activation	glut_max3_r/activation	iliacus_r/activation	psoas_r/activation	quad_fem_r/activation	gem_r/activation	peri_r/activation	rect_fem_r/activation	vas_med_r/activation	vas_int_r/activation	vas_lat_r/activation	med_gas_r/activation	lat_gas_r/activation	soleus_r/activation	tib_post_r/activation	flex_dig_r/activation	flex_hal_r/activation	tib_ant_r/activation	per_brev_r/activation	per_long_r/activation	per_tert_r/activation	ext_dig_r/activation	ext_hal_r/activation	ercspn_r/activation	intobl_r/activation	extobl_r/activation	
          1.56720202	         -2.91296352	          1.63083157	         -2.80834122	          2.08437868	          0.91116009	          0.00345918	         29.16240929	          3.02305559	         -5.15038584	        -10.09016718	          2.72577124	          3.42025231	        -12.77152708	        -19.98300740	          6.81865162	         -1.91559357	         -4.23201296	        -10.68726267	          1.61635913	          4.80046466	          8.63841101	         29.19685125	         -3.31476454	         -0.38093990	          1.47239937	         -2.82643212	        -13.47019592	          9.16992317	          4.09150518	        -13.64878238	         19.30961117	         24.34751885	         29.79716066	         86.51662706	         86.51662706	          0.05000021	          0.05006666	          0.07471643	          0.05080757	          0.05010069	          0.05001254	          0.32807761	          0.08093241	          0.35348386	          0.08093240	          0.05687936	          0.05515233	          0.06078389	          0.05715127	          0.05000354	          0.16002624	          0.05000038	          0.05001801	          0.08093224	          0.05002142	          0.05002038	          0.19485516	          0.13014714	          0.14313788	          0.08445913	          0.05892254	          0.05873842	          0.05000006	          0.05000015	          0.05000014	          0.05000012	          0.06892942	          0.06892912	          0.05089701	          0.06840185	          0.05000018	          0.05000018	          0.40913399	          0.14499697	          0.25318276	          0.15136539	          0.50013823	          0.05870722	          0.05783626	          0.13046669	          0.12665090	          0.29915001	          0.05000017	          0.05000007	          0.56803503	          0.10867191	          0.05000031	          0.05000094	          0.05000012	          0.05000010	          0.05000009	          0.05000077	          0.19968687	          0.05000217	          0.05000134	          0.05000434	          0.05015685	          0.41395103	          0.05001855	          0.05000028	          0.05000154	          0.05000095	          0.05000089	          0.41241461	          0.44421905	          0.05000008	          0.05000025	          0.05000012	          0.68424007	          0.23754608	          0.24105977	          0.20197480	          0.32282922	          0.50419188	          0.09950482	          0.74773746	          0.32573926	          0.53219391	          0.05000001	          0.29111374	          0.64829949	          0.05000012	          0.05000004	          0.13100078	          0.05000003	          0.05000005	          0.05000005	
          1.57765003	         -2.91618916	          1.67430699	         -3.16074541	          2.10023987	          0.90931531	          0.00330159	         29.27510277	          3.13255790	         -5.04355742	        -11.08694998	          2.41699284	          3.17379654	        -13.13400593	        -19.76946413	          6.45533243	         -2.77342269	         -4.40210185	        -10.24582833	          1.91619845	          4.41789799	          8.23703056	         30.86264925	         -3.19642683	         -0.50594921	          1.57115952	         -3.37835851	        -13.45073803	          8.72232435	          4.00736730	        -13.59943459	         19.38559354	         23.39927318	         30.84507023	         86.51662706	         86.51662706	          0.05870667	          0.05000061	          0.06385056	          0.05000025	          0.05000042	          0.05868172	          0.27942108	          0.06892952	          0.33418484	          0.06892950	          0.06893004	          0.05000046	          0.05176930	          0.05000054	          0.05000034	          0.19057961	          0.05871725	          0.05001316	          0.06892969	          0.05000123	          0.05000065	          0.22840884	          0.13892950	          0.14437003	          0.10399855	          0.05018443	          0.05002717	          0.05000001	          0.05000005	          0.05000005	          0.05000004	          0.05870666	          0.05870664	          0.05412949	          0.08191304	          0.05870683	          0.06220273	          0.38739056	          0.12349282	          0.29013527	          0.12891675	          0.49337828	          0.05000048	          0.05000034	          0.13411030	          0.13072039	          0.30678689	          0.05000011	          0.05000004	          0.61948853	          0.09255511	          0.05000026	          0.05000099	          0.05000012	          0.05000010	          0.05000012	          0.05000095	          0.26282134	          0.06627314	          0.05000125	          0.05000273	          0.07394666	          0.38632548	          0.05015771	          0.05000029	          0.05000110	          0.05000069	          0.05000066	          0.35125033	          0.48908800	          0.05000006	          0.05000017	          0.05000008	          0.58276951	          0.22802737	          0.23295548	          0.19627566	          0.31908778	          0.50630636	          0.10036077	          0.70443689	          0.34801721	          0.53092025	          0.05000000	          0.24793921	          0.55215141	          0.05870639	          0.05000006	          0.11157236	          0.05000002	          0.05000001	          0.05000007	
          1.58809804	         -2.91867769	          1.72051342	         -3.49631653	          2.11635622	          0.90741847	          0.00312503	         29.43863092	          3.24495002	         -4.90382626	        -12.04522817	          2.07914525	          2.92717199	        -14.25638010	        -19.62811362	          5.74648541	         -3.70221751	         -4.57386993	         -9.64477490	          2.04875836	          3.99396565	          7.92155065	         32.61675970	         -3.06991651	         -0.64674343	          1.66558443	         -3.96757952	        -13.45258215	          8.44327187	          3.84988189	        -13.54410642	         19.37817167	         22.50657016	         31.92580511	         86.51662706	         86.51662706	          0.05000009	          0.05000155	          0.05438138	          0.05870640	          0.05082089	          0.05000061	          0.23798067	          0.05870673	          0.28462253	          0.05870671	          0.05870731	          0.08199668	          0.05000079	          0.05001594	          0.05004877	          0.23050700	          0.05000928	          0.05000444	          0.05870693	          0.05000163	          0.07494089	          0.31217752	          0.12350083	          0.13099217	          0.19053506	          0.11294753	          0.05000080	          0.09064128	          0.05000002	          0.05000002	          0.05000001	          0.05000000	          0.05000000	          0.05000000	          0.06976467	          0.05000016	          0.05297759	          0.46196294	          0.21491359	          0.25971597	          0.21849040	          0.55685006	          0.08671679	          0.05000004	          0.11422067	          0.11133362	          0.27270637	          0.05000008	          0.05000003	          0.52761403	          0.07882855	          0.05000020	          0.05000320	          0.05000032	          0.05000019	          0.05000014	          0.05000035	          0.22384307	          0.16863928	          0.05000061	          0.05001782	          0.11666463	          0.41368162	          0.05000064	          0.05000022	          0.05000086	          0.05000059	          0.05000049	          0.29915710	          0.48203488	          0.05000002	          0.05000013	          0.05000009	          0.55767007	          0.21796426	          0.22443380	          0.18999466	          0.30892457	          0.50153580	          0.09822139	          0.66299697	          0.30516597	          0.51154421	          0.05000000	          0.21116782	          0.47026287	          0.05000025	          0.05000004	          0.09502534	          0.05000000	          0.05233848	          0.05000003	
          1.59854606	         -2.92050503	          1.76883709	         -3.81726497	          2.13274522	          0.90548234	          0.00293233	         29.60273304	          3.34397034	         -4.72518316	        -12.96618945	          1.71023200	          2.66609148	        -16.06217632	        -19.54615059	          4.95144918	         -4.73407420	         -4.79870025	         -8.88895986	          2.18881490	          3.52177052	          7.68539385	         34.49196386	         -2.93125235	         -0.79914227	          1.75562919	         -4.60509441	        -13.47120811	          8.29018573	          3.61913904	        -13.49952914	         19.35449894	         21.69154810	         33.04933002	         86.51662706	         86.51662706	          0.05000094	          0.05000006	          0.05000005	          0.05000015	          0.05000012	          0.05000019	          0.20268621	          0.05000005	          0.24241070	          0.05000003	          0.05000064	          0.08314937	          0.05870725	          0.05870675	          0.05870666	          0.27241714	          0.06387576	          0.06922719	          0.05000025	          0.05000009	          0.15367757	          0.37503494	          0.10518480	          0.11156503	          0.16227724	          0.09619661	          0.09502420	          0.07719864	          0.06095198	          0.05870870	          0.05870681	          0.08093239	          0.08741435	          0.07644234	          0.05941801	          0.05000004	          0.05000005	          0.56036032	          0.39589261	          0.22119799	          0.18608653	          0.47426468	          0.07385599	          0.05000000	          0.09728083	          0.09482194	          0.23801038	          0.05000012	          0.05000007	          0.44936470	          0.06713775	          0.05000023	          0.05000051	          0.05000008	          0.05000016	          0.05000003	          0.05000021	          0.23051976	          0.18106318	          0.05870687	          0.05870684	          0.09936385	          0.41968549	          0.07359058	          0.05000021	          0.05000244	          0.05000208	          0.05006270	          0.25478973	          0.55592875	          0.05000015	          0.05000022	          0.05000006	          0.47496320	          0.20270960	          0.21289868	          0.18273710	          0.28840288	          0.47671680	          0.10922683	          0.56466918	          0.25990746	          0.43567822	          0.05000000	          0.17984992	          0.40051906	          0.05000001	          0.05000000	          0.08093237	          0.05000006	          0.05870672	          0.06182300	
